{"title":"The Adventures of Tintin (2011) DVDRip [MKV AC3][RoB]PR3DATOR","uid":7048637,"size":1096938171,"categoryP":"video","categoryS":"movies","magnet":"?xt=urn:btih:e614d5c31b6d3be4d31a76201829b8b04a6ee019&amp;dn=The+Adventures+of+Tintin+%282011%29+DVDRip+%5BMKV+AC3%5D%5BRoB%5DPR3DATOR&amp;tr=udp%3A%2F%2Ftracker.openbittorrent.com%3A80&amp;tr=udp%3A%2F%2Fopen.demonii.com%3A1337&amp;tr=udp%3A%2F%2Ftracker.coppersurfer.tk%3A6969&amp;tr=udp%3A%2F%2Fexodus.desync.com%3A6969","seeders":0,"leechers":0,"uploader":"MScope40","files":-1,"time":1329784887,"description":"General\n\nUnique ID : 168348648403719580577546155723716462494 (0x7EA6C532C2870C1E037BA147C20E879E)\nComplete name : THE ADVENTURES OF TINTIN (2011) DVDRip [MKV AC3][RoB]PR3DATOR RG\nFormat : Matroska\nFormat version : Version 2\nFile size : 1.00 GiB\nDuration : 1h 42mn\nOverall bit rate : 1 403 Kbps\nWriting application : Lavf51.12.1\nWriting library : Lavf51.12.1\n\nVideo\nID : 1\nFormat : AVC\nFormat/Info : Advanced Video Codec\nFormat profile : &lt;a class=&quot;__cf_email__&quot; href=&quot;/cdn-cgi/l/email-protection&quot; data-cfemail=&quot;fcbe9d8f9990959299bcb0ced2cd&quot;&gt;[email&amp;#160;protected]&lt;/a&gt;&lt;script cf-hash='f9e31' type=&quot;text/javascript&quot;&gt;\n/* &lt;![CDATA[ */!function(){try{var t=&quot;currentScript&quot;in document?document.currentScript:function(){for(var t=document.getElementsByTagName(&quot;script&quot;),e=t.length;e--;)if(t[e].getAttribute(&quot;cf-hash&quot;))return t[e]}();if(t&amp;&amp;t.previousSibling){var e,r,n,i,c=t.previousSibling,a=c.getAttribute(&quot;data-cfemail&quot;);if(a){for(e=&quot;&quot;,r=parseInt(a.substr(0,2),16),n=2;a.length-n;n+=2)i=parseInt(a.substr(n,2),16)^r,e+=String.fromCharCode(i);e=document.createTextNode(e),c.parentNode.replaceChild(e,c)}}}catch(u){}}();/* ]]&gt; */&lt;/script&gt;\nFormat settings, CABAC : No\nFormat settings, ReFrames : 5 frames\nFormat settings, GOP : M=1, N=12\nCodec ID : V_MPEG4/ISO/AVC\nDuration : 1h 42mn\nBit rate : 1 215 Kbps\nWidth : 640 pixels\nHeight : 272 pixels\nDisplay aspect ratio : 2.35:1\nFrame rate mode : Variable\nFrame rate : 25.000 fps\nColor space : YUV\nChroma subsampling : 4:2:0\nBit depth : 8 bits\nScan type : Progressive\nBits/(Pixel*Frame) : 0.279\nStream size : 891 MiB (87%)\nLanguage : English\nDefault : Yes\nForced : No\n\nAudio\nID : 2\nFormat : AC-3\nFormat/Info : Audio Coding 3\nMode extension : CM (complete main)\nCodec ID : A_AC3\nDuration : 1h 42mn\nBit rate mode : Constant\nBit rate : 160 Kbps\nChannel(s) : 2 channels\nChannel positions : Front: L R\nSampling rate : 44.1 KHz\nBit depth : 16 bits\nCompression mode : Lossy\nStream size : 117 MiB (11%)\nLanguage : English\nDefault : Yes\nForced : No\n\nScreen Shots\n &lt;a href=&quot;\nhttp://img703.imageshack.us/img703/9435/vlcsnap2012022022h23m41.png&quot; rel=&quot;nofollow&quot; target=&quot;_NEW&quot;&gt;\nhttp://img703.imageshack.us/img703/9435/vlcsnap2012022022h23m41.png&lt;/a&gt;\n &lt;a href=&quot;\nhttp://img205.imageshack.us/img205/2779/vlcsnap2012022022h23m55.png&quot; rel=&quot;nofollow&quot; target=&quot;_NEW&quot;&gt;\nhttp://img205.imageshack.us/img205/2779/vlcsnap2012022022h23m55.png&lt;/a&gt;\n &lt;a href=&quot;\nhttp://img836.imageshack.us/img836/1658/vlcsnap2012022022h25m01.png&quot; rel=&quot;nofollow&quot; target=&quot;_NEW&quot;&gt;\nhttp://img836.imageshack.us/img836/1658/vlcsnap2012022022h25m01.png&lt;/a&gt;\n &lt;a href=&quot;\nhttp://img546.imageshack.us/img546/232/vlcsnap2012022022h25m08.png&quot; rel=&quot;nofollow&quot; target=&quot;_NEW&quot;&gt;\nhttp://img546.imageshack.us/img546/232/vlcsnap2012022022h25m08.png&lt;/a&gt;\n\n","torrent":{"xt":"urn:btih:e614d5c31b6d3be4d31a76201829b8b04a6ee019","amp;dn":"The+Adventures+of+Tintin+%282011%29+DVDRip+%5BMKV+AC3%5D%5BRoB%5DPR3DATOR","amp;tr":["udp%3A%2F%2Ftracker.openbittorrent.com%3A80","udp%3A%2F%2Fopen.demonii.com%3A1337","udp%3A%2F%2Ftracker.coppersurfer.tk%3A6969","udp%3A%2F%2Fexodus.desync.com%3A6969"],"infoHash":"e614d5c31b6d3be4d31a76201829b8b04a6ee019","infoHashBuffer":{"type":"Buffer","data":[230,20,213,195,27,109,59,228,211,26,118,32,24,41,184,176,74,110,224,25]},"announce":[],"urlList":[]}}